<svg xmlns="http://www.w3.org/2000/svg" viewBox="0 0 200 200" width="200" height="200">
  <defs>
    <!-- Gradient for modern look -->
    <linearGradient id="logoGradient" x1="0%" y1="0%" x2="100%" y2="100%">
      <stop offset="0%" style="stop-color:#2563eb;stop-opacity:1" />
      <stop offset="100%" style="stop-color:#1d4ed8;stop-opacity:1" />
    </linearGradient>

    <!-- Shadow filter -->
    <filter id="shadow" x="-20%" y="-20%" width="140%" height="140%">
      <feDropShadow dx="2" dy="4" stdDeviation="3" flood-opacity="0.2"/>
    </filter>
  </defs>

  <!-- Background circle -->
  <circle cx="100" cy="100" r="90" fill="url(#logoGradient)" filter="url(#shadow)"/>

  <!-- Medical cross symbol -->
  <g transform="translate(100,100)">
    <!-- Horizontal bar -->
    <rect x="-25" y="-8" width="50" height="16" rx="8" fill="white"/>
    <!-- Vertical bar -->
    <rect x="-8" y="-25" width="16" height="50" rx="8" fill="white"/>
  </g>

  <!-- Document/Records symbol -->
  <g transform="translate(100,130)">
    <!-- Main document -->
    <rect x="-15" y="-10" width="30" height="20" rx="3" fill="white" opacity="0.9"/>
    <!-- Document lines -->
    <line x1="-10" y1="-5" x2="10" y2="-5" stroke="#2563eb" stroke-width="1.5" stroke-linecap="round"/>
    <line x1="-10" y1="0" x2="5" y2="0" stroke="#2563eb" stroke-width="1.5" stroke-linecap="round"/>
    <line x1="-10" y1="5" x2="8" y2="5" stroke="#2563eb" stroke-width="1.5" stroke-linecap="round"/>
  </g>

  <!-- Information/Data symbol -->
  <g transform="translate(100,70)">
    <!-- Info circle -->
    <circle cx="0" cy="0" r="8" fill="white" opacity="0.9"/>
    <!-- Info "i" -->
    <circle cx="0" cy="-3" r="2" fill="#2563eb"/>
    <rect x="-1.5" y="0" width="3" height="6" rx="1.5" fill="#2563eb"/>
  </g>

  <!-- Connection lines (representing networking/integration) -->
  <g stroke="white" stroke-width="2" opacity="0.6">
    <!-- Connecting elements -->
    <line x1="85" y1="85" x2="100" y2="70" stroke-linecap="round"/>
    <line x1="115" y1="85" x2="100" y2="70" stroke-linecap="round"/>
    <line x1="100" y1="115" x2="100" y2="120" stroke-linecap="round"/>
  </g>
</svg>
